<?xml version="1.0" encoding="utf-8"?>
<!-- Generator: Adobe Illustrator 22.1.0, SVG Export Plug-In . SVG Version: 6.00 Build 0)  -->
<svg version="1.1" id="Слой_1" xmlns="http://www.w3.org/2000/svg" xmlns:xlink="http://www.w3.org/1999/xlink" x="0px" y="0px"
	 viewBox="0 0 174.2 174.2" style="enable-background:new 0 0 174.2 174.2;" xml:space="preserve">
<style type="text/css">
	.st0{fill:#345D9D;}
</style>
<path class="st0" d="M87.1,0C39,0,0,39,0,87.1s39,87.1,87.1,87.1s87.1-39,87.1-87.1C174.1,39,135.2,0,87.1,0 M88.4,89.9l-9,30.6
	h48.4c1.7,0,2.8,1.6,2.4,3.2l-4.2,14.5c-0.4,1.4-1.7,2.4-3.2,2.4h-74l12.5-42.3l-13.8,4.3l3-10l13.9-4.3L82,28.9
	c0.4-1.4,1.7-2.4,3.2-2.4h18.7c1.7,0,2.8,1.6,2.4,3.2L91.4,79.9l13.8-4.3l-3,10.1L88.4,89.9z"/>
</svg>
