<?xml version="1.0" encoding="utf-8"?>
<!-- Generator: Adobe Illustrator 22.1.0, SVG Export Plug-In . SVG Version: 6.00 Build 0)  -->
<svg version="1.1" id="Layer_1" xmlns="http://www.w3.org/2000/svg" xmlns:xlink="http://www.w3.org/1999/xlink" x="0px" y="0px"
	 viewBox="0 0 675 675" style="enable-background:new 0 0 675 675;" xml:space="preserve">
<style type="text/css">
	.st0{fill:#4BC846;}
	.st1{fill:#FFFFFF;}
</style>
<title>12-bitcoin-cash-square-crop</title>
<circle class="st0" cx="337" cy="337.5" r="335"/>
<path class="st1" d="M494.1,351.4l-0.2-0.3V351c-0.1-0.3-0.2-0.7-0.3-1.1l0,0l0,0l0,0l0,0l0,0l0,0v-0.1
	c-3.9-13.2-11.7-24.8-22.4-33.5l0,0c-0.3-0.2-0.6-0.5-1-0.7l-0.4-0.3l-0.3-0.2l-0.1-0.1l-0.3-0.2l-0.1-0.1l-0.3-0.2l-0.1-0.1
	l-0.3-0.2l-0.2-0.1l-0.3-0.2l-0.2-0.1l-0.3-0.2l-0.2-0.1l-0.2-0.3l-0.2-0.1l-0.3-0.2l-0.2-0.1l-0.3-0.2l-0.2-0.1l-0.3-0.2l-0.2-0.1
	l-0.4-0.3l-0.2-0.1l-0.4-0.2l-0.2-0.1l-0.4-0.2l-0.2-0.1L463,311l-0.2-0.1l-0.4-0.2l-0.2-0.1l-0.4-0.2l-0.2-0.1l-0.4-0.2L461,310
	l-0.4-0.3l-0.2-0.1l-0.4-0.3l-0.2-0.1l-0.4-0.3l-0.2-0.1l-0.4-0.3l-0.2-0.1l-0.5-0.2l-0.2-0.1l-0.5-0.2l-0.3-0.2l0,0
	c-0.2-0.1-0.5-0.2-0.7-0.4c-9.6-4.9-19.9-8.2-30.6-9.7c3-3.2,5.7-6.7,8.2-10.3l0.4-0.6l0,0l0.2-0.3l0.2-0.4l0.1-0.2l0.2-0.4l0.1-0.2
	l0.2-0.4l0.1-0.2l0.2-0.4l0.1-0.2l0.2-0.4l0.1-0.2l0.2-0.4l0.1-0.2l0.2-0.4l0.1-0.2l0.2-0.4l0.1-0.2l0.2-0.4l0.1-0.2l0.2-0.4
	l0.1-0.2l0.2-0.4l0.1-0.2l0.2-0.4l0.1-0.2l0.2-0.3l0.1-0.2l0.2-0.3l0.1-0.2l0.2-0.3l0.1-0.2l0.2-0.3l0.1-0.1l0.2-0.3l0.1-0.1
	l0.2-0.3l0.1-0.1l0.2-0.3l0.1-0.1l0.1-0.3l0.1-0.1l0.1-0.3l0.1-0.1l0.1-0.3l0.1-0.1l0.2-0.3l0.2-0.4c0.2-0.3,0.3-0.7,0.4-1l0,0
	c4.6-11.3,5.7-23.7,3.1-35.7l0,0v-0.1l0,0l0,0l0,0l0,0l0,0l0,0c-0.1-0.3-0.1-0.7-0.2-1v-0.9l0,0l0,0l0,0l0,0l-0.1-0.3
	c-0.1-0.5-0.2-0.9-0.4-1.4c-0.1-0.5-0.2-0.9-0.4-1.4l-0.2-0.3V232c-0.1-0.3-0.2-0.6-0.3-1l0,0l0,0l0,0l0,0l0,0l0,0l0,0
	c-3.5-11.7-10.4-22.1-19.9-29.8l0,0c-0.3-0.2-0.6-0.4-0.8-0.7l-0.4-0.3l-0.3-0.2l-0.1-0.1l-0.3-0.2l-0.1-0.1l-0.3-0.2l-0.1-0.1
	l-0.3-0.2l-0.1-0.1l-0.3-0.2l-0.1-0.1l-0.3-0.2l-0.1-0.1l-0.3-0.2l-0.2-0.1l-0.3-0.2l-0.2-0.1l-0.3-0.2l-0.2-0.1l-0.3-0.2l-0.2-0.1
	l-0.3-0.2l-0.2-0.1l-0.3-0.2l-0.2-0.1l-0.3-0.2l-0.2-0.1l-0.3-0.2l-0.2-0.1l-0.3-0.2l-0.2-0.1l-0.4-0.2l-0.2-0.1l-0.4-0.2l-0.2-0.1
	l-0.4-0.2l-0.6-0.4l-0.4-0.2l-0.2-0.1L412,194l-0.2-0.1l-0.4-0.2l-0.2-0.1l-0.4-0.2l-0.2-0.1l-0.4-0.2l-0.3-0.1l0,0l-0.6-0.3
	c-18.3-9.5-41.5-12.4-64.9-6.4l-6.1,1.6L322.9,128l-35.7,9.1l15.3,59.7l-28.5,7.3l-15.3-59.5l-35.7,8.9l15.3,59.7l-73.5,18.9l9.8,38
	l29.6-7.6c9.8-2.5,19.8,3.4,22.3,13.2l0,0l0,0l0,0l41.1,160c1.7,6.5-2.3,13.2-8.8,14.9l-26,6.7l1.5,45.2l73.4-18.9l15.5,59.6
	l35.6-9.2l-15.4-59.7l28.5-7.3l15.4,59.7l35.6-9.2l-15.4-59.9c6-1.6,11.2-2.9,14.8-3.9c26.4-6.8,47.7-22.2,60.6-41.5l0.4-0.6l0,0
	l0.2-0.3l0.3-0.4l0.1-0.2l0.3-0.4l0.1-0.2l0.3-0.4l0.1-0.2l0.3-0.4l0.1-0.2l0.3-0.4l0.1-0.2l0.3-0.4l0.1-0.2l0.2-0.4l0.1-0.2
	l0.2-0.4l0.1-0.2l0.2-0.4l0.1-0.2l0.2-0.4l0.1-0.2l0.2-0.4l0.1-0.2l0.2-0.4l0.1-0.2l0.2-0.4l0.1-0.2l0.2-0.4l0.1-0.2l0.2-0.4
	l0.1-0.2l0.2-0.4l0.1-0.2l0.2-0.4l0.1-0.2l0.2-0.4l0.1-0.2l0.2-0.4l0.1-0.2l0.2-0.4l0.1-0.2l0.2-0.3l0.1-0.2l0.2-0.3l0.1-0.1
	l0.2-0.4l0.2-0.5c0.2-0.4,0.3-0.7,0.5-1.1l0,0c5.2-12.7,6.4-26.7,3.5-40.1l0,0l0,0l0,0l0,0l0,0l0,0l0,0l0,0l-0.3-1.1v-0.1l0,0l0,0
	l0,0l0,0l0,0l0,0l0,0l0,0l0,0l0,0l0,0l0,0l0,0l-0.1-0.1c-0.1-0.5-0.2-1.1-0.4-1.6C494.2,352.6,494.2,352,494.1,351.4z M284.6,244.4
	c6.1-1.6,31.2-7.9,39.5-10c13.2-3.4,26.2-2.1,36.3,2.8l0.3,0.2l0,0l0.1,0.1l0.2,0.1l0.1,0.1l0.2,0.1l0.1,0.1l0.2,0.1l0.1,0.1
	l0.2,0.1l0.1,0.1l0.2,0.1l0.1,0.1l0.2,0.1l0.1,0.1l0.2,0.1l0.1,0.1l0.2,0.1l0.1,0.1l0.2,0.1l0.1,0.1l0.2,0.1l0.1,0.1l0.2,0.1
	l0.1,0.1l0.2,0.1l0.1,0.1l0.2,0.1l0.1,0.1l0.2,0.1l0.1,0.1l0.2,0.1l0.1,0.1l0.2,0.1l0.1,0.1l0.2,0.1l0.1,0.1l0.2,0.1h0.1l0.2,0.1
	h0.1l0.2,0.1h0.1l0.2,0.1h0.1l0.1,0.1h0.1l0.2,0.1l0.2,0.1c0.2,0.1,0.3,0.2,0.5,0.3l0,0c5.2,3.9,9,9.4,10.9,15.6l0,0v0.1
	c0,0.2,0.1,0.3,0.2,0.5l0,0l0.1,0.2c0.1,0.3,0.1,0.5,0.2,0.7c0.1,0.3,0.1,0.5,0.1,0.8l0.1,0.2l0,0c0,0.2,0.1,0.4,0.1,0.5v0.1l0,0
	c1.3,6.4,0.6,13-2,18.9l0,0l-0.2,0.5l-0.1,0.3l-0.1,0.2v0.1l-0.1,0.1v0.1l-0.1,0.2v0.1l-0.1,0.2v0.1l-0.1,0.2v0.1l-0.1,0.2v0.1
	l-0.1,0.2v0.1l-0.1,0.2l-0.1,0.1l-0.1,0.2l-0.1,0.1l-0.1,0.2l-0.1,0.1l-0.1,0.2l-0.1,0.1l-0.1,0.2l-0.1,0.1l-0.1,0.2l-0.1,0.1
	l-0.1,0.2l-0.1,0.1l-0.1,0.2l-0.1,0.1l-0.1,0.2l-0.1,0.1l-0.1,0.2l-0.1,0.1l-0.1,0.2l-0.1,0.1l-0.1,0.2l-0.1,0.1l-0.2,0.2l-0.1,0.1
	l-0.2-0.7l-0.1,0.1l-0.2,0.2l-0.1,0.1l-0.2,0.2l-0.1,0.1l0,0l-0.2,0.3c-6.6,9.2-17.3,16.6-30.5,20c-8.3,2.1-33.4,8.7-39.5,10.3
	L284.6,244.4z M424,367l0.1,0.2l0,0c0,0.2,0.1,0.4,0.1,0.6l0,0l0,0l0,0l0,0l0,0l0,0l0,0c1.4,7,0.4,14.3-2.9,20.7l0,0l-0.3,0.6l0,0.4
	l-0.1,0.2l-0.1,0.1l-0.1,0.2l-0.1,0.1l-0.1,0.2l-0.1,0.1l-0.1,0.2l-0.1,0.1l-0.1,0.2L420,391l-0.1,0.2l-0.1,0.1l-0.1,0.2l-0.1,0.1
	l-0.1,0.2l-0.1,0.1l-0.1,0.2l-0.1,0.1l-0.1,0.2l-0.1,0.1l-0.1,0.2l0.1-0.2l-0.1,0.2l-0.1,0.1l-0.2,0.2l-0.1,0.1l-0.2,0.2l-0.1,0.1
	l-0.1,0.2l-0.1,0.1l-0.1,0.2l-0.1,0.1l-0.1,0.2l-0.1,0.1l-0.1,0.2l-0.1,0.1l-0.2,0.2l-0.1,0.1l-0.2,0.2l-0.1,0.1l-0.2,0.2l-0.1,0.1
	l-0.2,0.2l-0.1,0.1L416,396l-0.1,0.2l0,0l-0.3,0.3c-8,10.2-20.8,18.5-36.4,22.5c-9.8,2.5-39.6,10.3-46.8,12.2l-20.2-78.7
	c7.2-1.9,37-9.4,46.9-11.9c15.6-4,30.9-2.9,42.8,2.2l0.4,0.2l0,0l0.2,0.1l0.3,0.1h0.1l0.3,0.1h0.1l0.3,0.1h0.1l0.3,0.1l0.1,0.1
	l0.3,0.1l0.1,0.1l0.3,0.1l0.1,0.1l0.3,0.1l0.1,0.1l0.2,0.1l0.1,0.1l0.2,0.1l0.1,0.1l0.2,0.1l0.1,0.1l0.2,0.1l0.1,0.1l0.2,0.1
	l0.1,0.1l0.2,0.1l0.1,0.1l0.2,0.1l0.1,0.1l0.2,0.1l0.1,0.1l0.2,0.1l0.1,0.1l0.2,0.1l0.1,0.1l0.2,0.1l0.1,0.1l0.2,0.1l0.1,0.1
	l0.2,0.1l0.1,0.1l0.2,0.1l0.1,0.1l0.2,0.1l0.1,0.1l0.2,0.1l0.2,0.2c0.2,0.1,0.4,0.2,0.6,0.4l0,0c6,4,10.4,9.9,12.5,16.8l0,0l0.1,0.1
	c0.1,0.2,0.1,0.3,0.2,0.5l0,0l0.1,0.2c0.1,0.3,0.1,0.5,0.2,0.8C424,366.3,424.1,366.7,424,367L424,367z"/>
</svg>
